#!OML:ASF E:\emotionWalksFemale\Project 1\Capture day 1\Session 1\Female1.ASF
:FULLY-SPECIFIED
:DEGREES
145
root 8.93273 15.3193 22.7059 186.439 -2.00296 180.842
lowerback 15.0743 0.542003 1.18681
upperback -2.11007 0.921634 -0.145929
thorax -10.7772 0.354498 -1.05263
lowerneck -6.53841 -3.61781 -7.67731
upperneck -5.58056 -4.58797 9.05784
head -0.218673 -2.36028 4.25905
rclavicle 1.84683e-014 -3.8763e-015
rhumerus -59.2179 33.7714 -41.3203
rradius 34.4625
rwrist 24.25
rhand 1.33897 -54.9921
rfingers 7.12502
rthumb 26.8722 -83.1022
lclavicle 1.84683e-014 -3.8763e-015
lhumerus -53.1329 -3.20592 5.73314
lradius 37.2135
lwrist -11.1196
lhand 8.70545 -23.1826
lfingers 7.12502
lthumb 33.8975 3.62382
rfemur -16.1927 8.50837 25.195
rtibia 29.4734
rfoot -21.2519 -24.7599
rtoes -1.27146
lfemur -21.2245 -8.19421 -21.1487
ltibia 34.6311
lfoot -25.2787 8.98398
ltoes -40.3969
146
root 8.92984 15.3035 22.7105 186.67 -2.04479 180.813
lowerback 15.5871 0.464772 1.27023
upperback -2.14196 0.833442 -0.209397
thorax -11.1126 0.300552 -1.15557
lowerneck -6.6881 -3.54424 -7.45531
upperneck -5.60238 -4.50503 9.03084
head -0.21341 -2.32482 4.20554
rclavicle -3.21161e-015 -3.42904e-015
rhumerus -60.0423 33.9901 -41.2059
rradius 34.0268
rwrist 25.2861
rhand 0.679758 -54.879
rfingers 7.12502
rthumb 26.2413 -83.0846
lclavicle -3.21161e-015 -3.42904e-015
lhumerus -53.7556 -3.52224 5.03637
lradius 37.0646
lwrist -11.0885
lhand 9.35934 -23.3567
lfingers 7.12502
lthumb 34.5184 3.31042
rfemur -16.8074 8.33607 25.1364
rtibia 30.1334
rfoot -21.4874 -24.6138
rtoes -0.633751
lfemur -21.794 -7.9721 -21.1683
ltibia 35.2046
lfoot -25.6673 8.69025
ltoes -40.2842
147
root 8.92778 15.2882 22.7133 186.959 -2.05695 180.851
lowerback 15.0905 0.509465 1.25734
upperback -1.62153 0.87483 -0.144301
thorax -10.2431 0.33031 -1.07416
lowerneck -6.91665 -3.49583 -7.28676
upperneck -6.2256 -4.46688 8.90797
head -0.388684 -2.33178 4.13464
rclavicle 1.21756e-015 -2.5345e-015
rhumerus -60.3234 33.6102 -40.5868
rradius 33.7901
rwrist 26.0605
rhand 0.504224 -55.051
rfingers 7.12502
rthumb 26.0732 -83.2815
lclavicle 1.21756e-015 -2.5345e-015
lhumerus -54.2199 -2.98362 4.68869
lradius 36.8909
lwrist -11.1003
lhand 9.3263 -23.5713
lfingers 7.12502
lthumb 34.4871 3.103
rfemur -17.4844 8.21385 25.1407
rtibia 30.7981
rfoot -22.0321 -24.435
rtoes 0.38765
lfemur -22.4504 -7.66555 -21.1135
ltibia 35.7982
lfoot -26.0509 8.46152
ltoes -40.7205
148
root 8.9275 15.2746 22.7158 187.27 -2.13452 180.82
lowerback 15.5333 0.508911 1.36476
upperback -1.68927 0.896395 -0.186724
thorax -10.5722 0.328552 -1.19361
lowerneck -7.01517 -3.52543 -7.22579
upperneck -6.28261 -4.51118 8.87559
head -0.388639 -2.35715 4.10841
rclavicle 9.89575e-015 -2.98177e-015
rhumerus -61.3441 33.5908 -40.3953
rradius 33.612
rwrist 26.698
rhand 1.24952 -55.4961
rfingers 7.12502
rthumb 26.7866 -83.6194
lclavicle 9.89575e-015 -2.98177e-015
lhumerus -54.7447 -3.29622 4.39586
lradius 36.8413
lwrist -11.2314
lhand 9.36603 -23.3133
lfingers 7.12502
lthumb 34.5248 3.35244
rfemur -18.1722 8.06141 25.0793
rtibia 31.4492
rfoot -22.3831 -24.3128
rtoes 1.00823
lfemur -23.1474 -7.34231 -21.1339
ltibia 36.4171
lfoot -26.2685 8.25737
ltoes -41.4609
149
root 8.92688 15.2568 22.72 187.606 -2.27437 180.763
lowerback 16.282 0.551257 1.52282
upperback -1.98025 1.00292 -0.187312
thorax -11.3281 0.359994 -1.32625
lowerneck -6.82653 -3.64807 -7.48425
upperneck -6.32164 -4.65589 8.91469
head -0.414133 -2.42345 4.1729
rclavicle -1.25172e-014 3.12465e-015
rhumerus -62.7663 33.699 -40.3243
rradius 33.3442
rwrist 27.2139
rhand 1.68136 -55.9172
rfingers 7.12502
rthumb 27.1998 -83.9765
lclavicle -1.25172e-014 3.12465e-015
lhumerus -55.1612 -3.84775 4.25476
lradius 36.7422
lwrist -11.4827
lhand 9.54771 -22.7392
lfingers 7.12502
lthumb 34.6972 3.88699
rfemur -18.8803 7.87936 24.9978
rtibia 32.1039
rfoot -22.6341 -24.1739
rtoes 1.63275
lfemur -23.8934 -7.13543 -21.1716
ltibia 37.0455
lfoot -26.463 8.13339
ltoes -42.0509
150
root 8.9257 15.2394 22.7216 187.944 -2.36206 180.779
lowerback 15.8266 0.627723 1.66831
upperback -1.58523 1.11829 -0.122563
thorax -10.6155 0.415709 -1.3535
lowerneck -6.70112 -3.71519 -7.65346
upperneck -6.99735 -4.75669 8.86987
head -0.646326 -2.49379 4.20205
rclavicle 1.65612e-014 1.61513e-015
rhumerus -63.3079 33.1448 -39.8611
rradius 33.0449
rwrist 27.6785
rhand 1.9801 -56.0206
rfingers 7.12502
rthumb 27.4856 -84.0348
lclavicle 1.65612e-014 1.61513e-015
lhumerus -55.4937 -3.28771 4.05206
lradius 36.5309
lwrist -11.7777
lhand 9.58946 -22.539
lfingers 7.12502
lthumb 34.7369 4.07811
rfemur -19.6273 7.77096 24.9861
rtibia 32.8177
rfoot -22.9874 -24.0625
rtoes 2.65395
lfemur -24.639 -6.92253 -21.1296
ltibia 37.6721
lfoot -26.7687 7.90624
ltoes -42.0568
151
root 8.925 15.224 22.7217 188.34 -2.38176 180.791
lowerback 16.2702 0.572495 1.81394
upperback -1.75042 1.08099 -0.177119
thorax -11.0554 0.381002 -1.49678
lowerneck -6.79416 -3.67737 -7.46055
upperneck -6.90603 -4.71608 8.7455
head -0.611869 -2.47373 4.117
rclavicle 1.38155e-014 5.29264e-015
rhumerus -64.2684 33.1265 -39.9506
rradius 32.8727
rwrist 28.2772
rhand 2.19139 -55.9268
rfingers 7.12502
rthumb 27.6876 -83.9087
lclavicle 1.38155e-014 5.29264e-015
lhumerus -56.194 -3.53972 3.51329
lradius 36.4886
lwrist -11.9408
lhand 9.56985 -22.3113
lfingers 7.12502
lthumb 34.7182 4.31012
rfemur -20.4721 7.68356 24.9603
rtibia 33.5914
rfoot -23.2721 -24.0616
rtoes 2.80746
lfemur -25.4267 -6.68411 -21.0976
ltibia 38.298
lfoot -27.0354 7.77345
ltoes -42.1667
152
root 8.92476 15.2036 22.7253 188.763 -2.41635 180.704
lowerback 16.2383 0.513307 1.74084
upperback -1.6423 0.98069 -0.191136
thorax -10.9203 0.338747 -1.44317
lowerneck -6.88281 -3.5617 -7.27025
upperneck -7.15782 -4.58603 8.62695
head -0.698374 -2.4231 4.0446
rclavicle 6.02566e-015 -9.93923e-017
rhumerus -64.896 32.99 -40.0071
rradius 32.7621
rwrist 28.6156
rhand 2.24444 -56.03
rfingers 7.12502
rthumb 27.7383 -84.0037
lclavicle 6.02566e-015 -9.93923e-017
lhumerus -57.0281 -3.28911 3.04259
lradius 36.5076
lwrist -12.1444
lhand 9.62903 -21.7894
lfingers 7.12502
lthumb 34.7744 4.81902
rfemur -21.3462 7.48843 24.8594
rtibia 34.3869
rfoot -23.5477 -24.141
rtoes 2.2979
lfemur -26.239 -6.49921 -21.1796
ltibia 38.9211
lfoot -27.2788 7.72158
ltoes -42.4346
153
root 8.92406 15.1831 22.7285 189.154 -2.52623 180.602
lowerback 16.3993 0.507173 1.77449
upperback -1.60693 0.977525 -0.211195
thorax -10.9732 0.33291 -1.48559
lowerneck -6.85574 -3.56327 -7.30412
upperneck -7.42676 -4.59698 8.56136
head -0.791639 -2.43709 4.03359
rclavicle -3.67752e-015 -3.03147e-015
rhumerus -65.8424 32.725 -40.0834
rradius 32.6627
rwrist 28.8791
rhand 2.49996 -56.19
rfingers 7.12502
rthumb 27.9826 -84.1242
lclavicle -3.67752e-015 -3.03147e-015
lhumerus -57.6802 -3.20871 2.87336
lradius 36.5797
lwrist -12.2049
lhand 9.892 -21.5859
lfingers 7.12502
lthumb 35.0239 4.96459
rfemur -22.1766 7.23616 24.7701
rtibia 35.1974
rfoot -23.7706 -24.221
rtoes 1.77467
lfemur -27.0326 -6.35851 -21.2681
ltibia 39.5646
lfoot -27.5604 7.47123
ltoes -42.2156
154
root 8.92335 15.165 22.7289 189.579 -2.62116 180.653
lowerback 16.7016 0.502343 1.94284
upperback -1.68982 1.01271 -0.216767
thorax -11.2378 0.334669 -1.60268
lowerneck -6.92742 -3.59494 -7.31304
upperneck -7.49973 -4.64063 8.54897
head -0.799563 -2.46143 4.0294
rclavicle 5.96354e-016 -6.70898e-015
rhumerus -66.8055 32.4245 -40.2397
rradius 32.4928
rwrist 29.1384
rhand 2.6713 -56.2793
rfingers 7.12502
rthumb 28.1464 -84.1866
lclavicle 5.96354e-016 -6.70898e-015
lhumerus -58.1916 -3.21586 2.66882
lradius 36.4893
lwrist -12.3144
lhand 10.1897 -21.5529
lfingers 7.12502
lthumb 35.3062 4.93107
rfemur -23.0563 7.13597 24.8201
rtibia 36.0163
rfoot -23.9459 -24.3413
rtoes 0.719572
lfemur -27.8806 -6.19494 -21.1812
ltibia 40.2447
lfoot -27.9058 7.09204
ltoes -41.494
155
root 8.92343 15.141 22.7302 190.011 -2.63139 180.77
lowerback 17.1977 0.512687 2.05771
upperback -1.89764 1.07289 -0.173391
thorax -11.7582 0.348849 -1.64796
lowerneck -7.02336 -3.61681 -7.29594
upperneck -7.32522 -4.66183 8.51985
head -0.724831 -2.4649 4.00923
rclavicle -4.28629e-015 -2.83268e-015
rhumerus -67.8615 32.2663 -40.5253
rradius 32.4368
rwrist 29.2076
rhand 2.65884 -56.3862
rfingers 7.12502
rthumb 28.1345 -84.2956
lclavicle -4.28629e-015 -2.83268e-015
lhumerus -58.8098 -3.4343 2.51294
lradius 36.3565
lwrist -12.4805
lhand 10.2756 -21.3004
lfingers 7.12502
lthumb 35.3877 5.16428
rfemur -23.9892 7.15716 24.93
rtibia 36.8275
rfoot -24.1922 -24.4858
rtoes 0.0979528
lfemur -28.7561 -5.99573 -21.0278
ltibia 40.9432
lfoot -28.1665 6.6628
ltoes -40.4986
156
root 8.92378 15.1134 22.7287 190.401 -2.72249 180.748
lowerback 17.3413 0.481195 2.16011
upperback -1.87013 1.05021 -0.205727
thorax -11.8094 0.328648 -1.73796
lowerneck -7.01309 -3.61548 -7.26074
upperneck -7.47266 -4.66884 8.50254
head -0.775791 -2.47516 3.9992
rclavicle 5.24295e-015 -2.88238e-015
rhumerus -68.6668 31.7996 -40.7949
rradius 32.4011
rwrist 29.2933
rhand 2.57955 -56.5059
rfingers 7.12502
rthumb 28.0587 -84.4277
lclavicle 5.24295e-015 -2.88238e-015
lhumerus -59.5942 -3.63786 2.60299
lradius 36.476
lwrist -12.3483
lhand 10.3942 -21.1269
lfingers 7.12502
lthumb 35.5002 5.31087
rfemur -24.8596 7.08166 24.9008
rtibia 37.6383
rfoot -24.5393 -24.6302
rtoes 0.135037
lfemur -29.5932 -5.89334 -21.0184
ltibia 41.6562
lfoot -28.3491 6.30133
ltoes -39.8316
